%TF.GenerationSoftware,KiCad,Pcbnew,8.0.2*%
%TF.CreationDate,2024-06-22T21:26:24+03:00*%
%TF.ProjectId,TARTI,54415254-492e-46b6-9963-61645f706362,rev?*%
%TF.SameCoordinates,Original*%
%TF.FileFunction,Legend,Top*%
%TF.FilePolarity,Positive*%
%FSLAX46Y46*%
G04 Gerber Fmt 4.6, Leading zero omitted, Abs format (unit mm)*
G04 Created by KiCad (PCBNEW 8.0.2) date 2024-06-22 21:26:24*
%MOMM*%
%LPD*%
G01*
G04 APERTURE LIST*
%ADD10C,0.150000*%
%ADD11C,0.120000*%
G04 APERTURE END LIST*
D10*
X29073733Y-38358380D02*
X29026114Y-38406000D01*
X29026114Y-38406000D02*
X28883257Y-38453619D01*
X28883257Y-38453619D02*
X28788019Y-38453619D01*
X28788019Y-38453619D02*
X28645162Y-38406000D01*
X28645162Y-38406000D02*
X28549924Y-38310761D01*
X28549924Y-38310761D02*
X28502305Y-38215523D01*
X28502305Y-38215523D02*
X28454686Y-38025047D01*
X28454686Y-38025047D02*
X28454686Y-37882190D01*
X28454686Y-37882190D02*
X28502305Y-37691714D01*
X28502305Y-37691714D02*
X28549924Y-37596476D01*
X28549924Y-37596476D02*
X28645162Y-37501238D01*
X28645162Y-37501238D02*
X28788019Y-37453619D01*
X28788019Y-37453619D02*
X28883257Y-37453619D01*
X28883257Y-37453619D02*
X29026114Y-37501238D01*
X29026114Y-37501238D02*
X29073733Y-37548857D01*
X29454686Y-37548857D02*
X29502305Y-37501238D01*
X29502305Y-37501238D02*
X29597543Y-37453619D01*
X29597543Y-37453619D02*
X29835638Y-37453619D01*
X29835638Y-37453619D02*
X29930876Y-37501238D01*
X29930876Y-37501238D02*
X29978495Y-37548857D01*
X29978495Y-37548857D02*
X30026114Y-37644095D01*
X30026114Y-37644095D02*
X30026114Y-37739333D01*
X30026114Y-37739333D02*
X29978495Y-37882190D01*
X29978495Y-37882190D02*
X29407067Y-38453619D01*
X29407067Y-38453619D02*
X30026114Y-38453619D01*
X10283914Y-1388304D02*
X10760104Y-1388304D01*
X10188676Y-1674019D02*
X10522009Y-674019D01*
X10522009Y-674019D02*
X10855342Y-1674019D01*
X11712485Y-1674019D02*
X11141057Y-1674019D01*
X11426771Y-1674019D02*
X11426771Y-674019D01*
X11426771Y-674019D02*
X11331533Y-816876D01*
X11331533Y-816876D02*
X11236295Y-912114D01*
X11236295Y-912114D02*
X11141057Y-959733D01*
X9736295Y-41314019D02*
X9736295Y-42123542D01*
X9736295Y-42123542D02*
X9783914Y-42218780D01*
X9783914Y-42218780D02*
X9831533Y-42266400D01*
X9831533Y-42266400D02*
X9926771Y-42314019D01*
X9926771Y-42314019D02*
X10117247Y-42314019D01*
X10117247Y-42314019D02*
X10212485Y-42266400D01*
X10212485Y-42266400D02*
X10260104Y-42218780D01*
X10260104Y-42218780D02*
X10307723Y-42123542D01*
X10307723Y-42123542D02*
X10307723Y-41314019D01*
X10736295Y-42266400D02*
X10879152Y-42314019D01*
X10879152Y-42314019D02*
X11117247Y-42314019D01*
X11117247Y-42314019D02*
X11212485Y-42266400D01*
X11212485Y-42266400D02*
X11260104Y-42218780D01*
X11260104Y-42218780D02*
X11307723Y-42123542D01*
X11307723Y-42123542D02*
X11307723Y-42028304D01*
X11307723Y-42028304D02*
X11260104Y-41933066D01*
X11260104Y-41933066D02*
X11212485Y-41885447D01*
X11212485Y-41885447D02*
X11117247Y-41837828D01*
X11117247Y-41837828D02*
X10926771Y-41790209D01*
X10926771Y-41790209D02*
X10831533Y-41742590D01*
X10831533Y-41742590D02*
X10783914Y-41694971D01*
X10783914Y-41694971D02*
X10736295Y-41599733D01*
X10736295Y-41599733D02*
X10736295Y-41504495D01*
X10736295Y-41504495D02*
X10783914Y-41409257D01*
X10783914Y-41409257D02*
X10831533Y-41361638D01*
X10831533Y-41361638D02*
X10926771Y-41314019D01*
X10926771Y-41314019D02*
X11164866Y-41314019D01*
X11164866Y-41314019D02*
X11307723Y-41361638D01*
X12069628Y-41790209D02*
X12212485Y-41837828D01*
X12212485Y-41837828D02*
X12260104Y-41885447D01*
X12260104Y-41885447D02*
X12307723Y-41980685D01*
X12307723Y-41980685D02*
X12307723Y-42123542D01*
X12307723Y-42123542D02*
X12260104Y-42218780D01*
X12260104Y-42218780D02*
X12212485Y-42266400D01*
X12212485Y-42266400D02*
X12117247Y-42314019D01*
X12117247Y-42314019D02*
X11736295Y-42314019D01*
X11736295Y-42314019D02*
X11736295Y-41314019D01*
X11736295Y-41314019D02*
X12069628Y-41314019D01*
X12069628Y-41314019D02*
X12164866Y-41361638D01*
X12164866Y-41361638D02*
X12212485Y-41409257D01*
X12212485Y-41409257D02*
X12260104Y-41504495D01*
X12260104Y-41504495D02*
X12260104Y-41599733D01*
X12260104Y-41599733D02*
X12212485Y-41694971D01*
X12212485Y-41694971D02*
X12164866Y-41742590D01*
X12164866Y-41742590D02*
X12069628Y-41790209D01*
X12069628Y-41790209D02*
X11736295Y-41790209D01*
X27654566Y-658319D02*
X27654566Y-1372604D01*
X27654566Y-1372604D02*
X27606947Y-1515461D01*
X27606947Y-1515461D02*
X27511709Y-1610700D01*
X27511709Y-1610700D02*
X27368852Y-1658319D01*
X27368852Y-1658319D02*
X27273614Y-1658319D01*
X28035519Y-658319D02*
X28654566Y-658319D01*
X28654566Y-658319D02*
X28321233Y-1039271D01*
X28321233Y-1039271D02*
X28464090Y-1039271D01*
X28464090Y-1039271D02*
X28559328Y-1086890D01*
X28559328Y-1086890D02*
X28606947Y-1134509D01*
X28606947Y-1134509D02*
X28654566Y-1229747D01*
X28654566Y-1229747D02*
X28654566Y-1467842D01*
X28654566Y-1467842D02*
X28606947Y-1563080D01*
X28606947Y-1563080D02*
X28559328Y-1610700D01*
X28559328Y-1610700D02*
X28464090Y-1658319D01*
X28464090Y-1658319D02*
X28178376Y-1658319D01*
X28178376Y-1658319D02*
X28083138Y-1610700D01*
X28083138Y-1610700D02*
X28035519Y-1563080D01*
X35675819Y-29240904D02*
X36485342Y-29240904D01*
X36485342Y-29240904D02*
X36580580Y-29193285D01*
X36580580Y-29193285D02*
X36628200Y-29145666D01*
X36628200Y-29145666D02*
X36675819Y-29050428D01*
X36675819Y-29050428D02*
X36675819Y-28859952D01*
X36675819Y-28859952D02*
X36628200Y-28764714D01*
X36628200Y-28764714D02*
X36580580Y-28717095D01*
X36580580Y-28717095D02*
X36485342Y-28669476D01*
X36485342Y-28669476D02*
X35675819Y-28669476D01*
X36675819Y-27669476D02*
X36675819Y-28240904D01*
X36675819Y-27955190D02*
X35675819Y-27955190D01*
X35675819Y-27955190D02*
X35818676Y-28050428D01*
X35818676Y-28050428D02*
X35913914Y-28145666D01*
X35913914Y-28145666D02*
X35961533Y-28240904D01*
X28925133Y-12272580D02*
X28877514Y-12320200D01*
X28877514Y-12320200D02*
X28734657Y-12367819D01*
X28734657Y-12367819D02*
X28639419Y-12367819D01*
X28639419Y-12367819D02*
X28496562Y-12320200D01*
X28496562Y-12320200D02*
X28401324Y-12224961D01*
X28401324Y-12224961D02*
X28353705Y-12129723D01*
X28353705Y-12129723D02*
X28306086Y-11939247D01*
X28306086Y-11939247D02*
X28306086Y-11796390D01*
X28306086Y-11796390D02*
X28353705Y-11605914D01*
X28353705Y-11605914D02*
X28401324Y-11510676D01*
X28401324Y-11510676D02*
X28496562Y-11415438D01*
X28496562Y-11415438D02*
X28639419Y-11367819D01*
X28639419Y-11367819D02*
X28734657Y-11367819D01*
X28734657Y-11367819D02*
X28877514Y-11415438D01*
X28877514Y-11415438D02*
X28925133Y-11463057D01*
X29877514Y-12367819D02*
X29306086Y-12367819D01*
X29591800Y-12367819D02*
X29591800Y-11367819D01*
X29591800Y-11367819D02*
X29496562Y-11510676D01*
X29496562Y-11510676D02*
X29401324Y-11605914D01*
X29401324Y-11605914D02*
X29306086Y-11653533D01*
D11*
%TO.C,C2*%
X23870400Y-39128800D02*
X23870400Y-40492800D01*
X23870400Y-39128800D02*
X34610400Y-39128800D01*
X23870400Y-43004800D02*
X23870400Y-44368800D01*
X23870400Y-44368800D02*
X34610400Y-44368800D01*
X34610400Y-39128800D02*
X34610400Y-40492800D01*
X34610400Y-43004800D02*
X34610400Y-44368800D01*
%TO.C,A1*%
X1978200Y-2359200D02*
X1978200Y-5029200D01*
X1978200Y-7569200D02*
X1978200Y-45799200D01*
X1978200Y-45799200D02*
X7058200Y-45799200D01*
X4648200Y-5029200D02*
X1978200Y-5029200D01*
X4648200Y-7569200D02*
X1978200Y-7569200D01*
X4648200Y-7569200D02*
X4648200Y-5029200D01*
X4648200Y-7569200D02*
X4648200Y-43129200D01*
X4648200Y-43129200D02*
X1978200Y-43129200D01*
X7058200Y-37919200D02*
X14938200Y-37919200D01*
X7058200Y-48339200D02*
X7058200Y-37919200D01*
X14938200Y-37919200D02*
X14938200Y-48339200D01*
X14938200Y-48339200D02*
X7058200Y-48339200D01*
X17348200Y-5029200D02*
X17348200Y-43129200D01*
X17348200Y-5029200D02*
X20018200Y-5029200D01*
X17348200Y-43129200D02*
X20018200Y-43129200D01*
X20018200Y-2359200D02*
X1978200Y-2359200D01*
X20018200Y-45799200D02*
X14938200Y-45799200D01*
X20018200Y-45799200D02*
X20018200Y-2359200D01*
%TO.C,J3*%
X22407900Y-1903500D02*
X24407900Y-1903500D01*
X22407900Y-3153500D02*
X22407900Y-1903500D01*
X22797900Y-2293500D02*
X22797900Y-9763500D01*
X22797900Y-9763500D02*
X33177900Y-9763500D01*
X23947900Y-3253500D02*
X26947900Y-3253500D01*
X23947900Y-4603500D02*
X24697900Y-4603500D01*
X23947900Y-8903500D02*
X23947900Y-4603500D01*
X24197900Y-4253500D02*
X23947900Y-3253500D01*
X24697900Y-4253500D02*
X24197900Y-4253500D01*
X24697900Y-4603500D02*
X24697900Y-4253500D01*
X24697900Y-8903500D02*
X23947900Y-8903500D01*
X26197900Y-4253500D02*
X26197900Y-4603500D01*
X26197900Y-4603500D02*
X26947900Y-4603500D01*
X26697900Y-4253500D02*
X26197900Y-4253500D01*
X26947900Y-3253500D02*
X26697900Y-4253500D01*
X26947900Y-4603500D02*
X26947900Y-8903500D01*
X26947900Y-8903500D02*
X26197900Y-8903500D01*
X29027900Y-3253500D02*
X32027900Y-3253500D01*
X29027900Y-4603500D02*
X29777900Y-4603500D01*
X29027900Y-8903500D02*
X29027900Y-4603500D01*
X29277900Y-4253500D02*
X29027900Y-3253500D01*
X29777900Y-4253500D02*
X29277900Y-4253500D01*
X29777900Y-4603500D02*
X29777900Y-4253500D01*
X29777900Y-8903500D02*
X29027900Y-8903500D01*
X31277900Y-4253500D02*
X31277900Y-4603500D01*
X31277900Y-4603500D02*
X32027900Y-4603500D01*
X31777900Y-4253500D02*
X31277900Y-4253500D01*
X32027900Y-3253500D02*
X31777900Y-4253500D01*
X32027900Y-4603500D02*
X32027900Y-8903500D01*
X32027900Y-8903500D02*
X31277900Y-8903500D01*
X33177900Y-2293500D02*
X22797900Y-2293500D01*
X33177900Y-9763500D02*
X33177900Y-2293500D01*
X24697900Y-8903500D02*
G75*
G02*
X26197547Y-8903344I750000J-1700000D01*
G01*
X29777900Y-8903500D02*
G75*
G02*
X31277547Y-8903344I750000J-1700000D01*
G01*
%TO.C,U1*%
X35222000Y-20409000D02*
X29951000Y-20409000D01*
X35222000Y-20409000D02*
X35222000Y-36549000D01*
X29951000Y-20409000D02*
X29951000Y-36549000D01*
X35222000Y-26675000D02*
X29951000Y-26675000D01*
X35222000Y-30284000D02*
X29951000Y-30284000D01*
X35222000Y-36549000D02*
X29951000Y-36549000D01*
%TO.C,C1*%
X23721800Y-13043000D02*
X23721800Y-14407000D01*
X23721800Y-13043000D02*
X34461800Y-13043000D01*
X23721800Y-16919000D02*
X23721800Y-18283000D01*
X23721800Y-18283000D02*
X34461800Y-18283000D01*
X34461800Y-13043000D02*
X34461800Y-14407000D01*
X34461800Y-16919000D02*
X34461800Y-18283000D01*
%TD*%
M02*
