%TF.GenerationSoftware,KiCad,Pcbnew,8.0.2*%
%TF.CreationDate,2024-06-22T21:26:24+03:00*%
%TF.ProjectId,TARTI,54415254-492e-46b6-9963-61645f706362,rev?*%
%TF.SameCoordinates,Original*%
%TF.FileFunction,Copper,L1,Top*%
%TF.FilePolarity,Positive*%
%FSLAX46Y46*%
G04 Gerber Fmt 4.6, Leading zero omitted, Abs format (unit mm)*
G04 Created by KiCad (PCBNEW 8.0.2) date 2024-06-22 21:26:24*
%MOMM*%
%LPD*%
G01*
G04 APERTURE LIST*
G04 Aperture macros list*
%AMRoundRect*
0 Rectangle with rounded corners*
0 $1 Rounding radius*
0 $2 $3 $4 $5 $6 $7 $8 $9 X,Y pos of 4 corners*
0 Add a 4 corners polygon primitive as box body*
4,1,4,$2,$3,$4,$5,$6,$7,$8,$9,$2,$3,0*
0 Add four circle primitives for the rounded corners*
1,1,$1+$1,$2,$3*
1,1,$1+$1,$4,$5*
1,1,$1+$1,$6,$7*
1,1,$1+$1,$8,$9*
0 Add four rect primitives between the rounded corners*
20,1,$1+$1,$2,$3,$4,$5,0*
20,1,$1+$1,$4,$5,$6,$7,0*
20,1,$1+$1,$6,$7,$8,$9,0*
20,1,$1+$1,$8,$9,$2,$3,0*%
G04 Aperture macros list end*
%TA.AperFunction,ComponentPad*%
%ADD10C,2.000000*%
%TD*%
%TA.AperFunction,ComponentPad*%
%ADD11R,1.000000X1.000000*%
%TD*%
%TA.AperFunction,ComponentPad*%
%ADD12O,1.000000X1.000000*%
%TD*%
%TA.AperFunction,ComponentPad*%
%ADD13R,1.600000X1.600000*%
%TD*%
%TA.AperFunction,ComponentPad*%
%ADD14O,1.600000X1.600000*%
%TD*%
%TA.AperFunction,ComponentPad*%
%ADD15RoundRect,0.250000X-0.650000X-1.550000X0.650000X-1.550000X0.650000X1.550000X-0.650000X1.550000X0*%
%TD*%
%TA.AperFunction,ComponentPad*%
%ADD16O,1.800000X3.600000*%
%TD*%
%TA.AperFunction,ComponentPad*%
%ADD17R,4.500000X2.500000*%
%TD*%
%TA.AperFunction,ComponentPad*%
%ADD18O,4.500000X2.500000*%
%TD*%
%TA.AperFunction,ViaPad*%
%ADD19C,3.000000*%
%TD*%
%TA.AperFunction,ViaPad*%
%ADD20C,0.600000*%
%TD*%
%TA.AperFunction,Conductor*%
%ADD21C,0.200000*%
%TD*%
G04 APERTURE END LIST*
D10*
%TO.P,C2,1*%
%TO.N,Vin*%
X24240400Y-41748800D03*
%TO.P,C2,2*%
%TO.N,GND*%
X34240400Y-41748800D03*
%TD*%
D11*
%TO.P,J2,1,Pin_1*%
%TO.N,GND*%
X13975000Y-16348800D03*
D12*
%TO.P,J2,2,Pin_2*%
%TO.N,5V*%
X13975000Y-17618800D03*
%TO.P,J2,3,Pin_3*%
%TO.N,A4*%
X13975000Y-18888800D03*
%TO.P,J2,4,Pin_4*%
%TO.N,A5*%
X13975000Y-20158800D03*
%TD*%
D13*
%TO.P,A1,1,D1/TX*%
%TO.N,unconnected-(A1-D1{slash}TX-Pad1)*%
X3378200Y-6299200D03*
D14*
%TO.P,A1,2,D0/RX*%
%TO.N,unconnected-(A1-D0{slash}RX-Pad2)*%
X3378200Y-8839200D03*
%TO.P,A1,3,~{RESET}*%
%TO.N,unconnected-(A1-~{RESET}-Pad3)*%
X3378200Y-11379200D03*
%TO.P,A1,4,GND*%
%TO.N,GND*%
X3378200Y-13919200D03*
%TO.P,A1,5,D2*%
%TO.N,D3*%
X3378200Y-16459200D03*
%TO.P,A1,6,D3*%
%TO.N,D2*%
X3378200Y-18999200D03*
%TO.P,A1,7,D4*%
%TO.N,GND*%
X3378200Y-21539200D03*
%TO.P,A1,8,D5*%
%TO.N,unconnected-(A1-D5-Pad8)*%
X3378200Y-24079200D03*
%TO.P,A1,9,D6*%
%TO.N,unconnected-(A1-D6-Pad9)*%
X3378200Y-26619200D03*
%TO.P,A1,10,D7*%
%TO.N,unconnected-(A1-D7-Pad10)*%
X3378200Y-29159200D03*
%TO.P,A1,11,D8*%
%TO.N,unconnected-(A1-D8-Pad11)*%
X3378200Y-31699200D03*
%TO.P,A1,12,D9*%
%TO.N,unconnected-(A1-D9-Pad12)*%
X3378200Y-34239200D03*
%TO.P,A1,13,D10*%
%TO.N,unconnected-(A1-D10-Pad13)*%
X3378200Y-36779200D03*
%TO.P,A1,14,D11*%
%TO.N,unconnected-(A1-D11-Pad14)*%
X3378200Y-39319200D03*
%TO.P,A1,15,D12*%
%TO.N,unconnected-(A1-D12-Pad15)*%
X3378200Y-41859200D03*
%TO.P,A1,16,D13*%
%TO.N,unconnected-(A1-D13-Pad16)*%
X18618200Y-41859200D03*
%TO.P,A1,17,3V3*%
%TO.N,unconnected-(A1-3V3-Pad17)*%
X18618200Y-39319200D03*
%TO.P,A1,18,AREF*%
%TO.N,unconnected-(A1-AREF-Pad18)*%
X18618200Y-36779200D03*
%TO.P,A1,19,A0*%
%TO.N,unconnected-(A1-A0-Pad19)*%
X18618200Y-34239200D03*
%TO.P,A1,20,A1*%
%TO.N,unconnected-(A1-A1-Pad20)*%
X18618200Y-31699200D03*
%TO.P,A1,21,A2*%
%TO.N,unconnected-(A1-A2-Pad21)*%
X18618200Y-29159200D03*
%TO.P,A1,22,A3*%
%TO.N,unconnected-(A1-A3-Pad22)*%
X18618200Y-26619200D03*
%TO.P,A1,23,A4*%
%TO.N,A4*%
X18618200Y-24079200D03*
%TO.P,A1,24,A5*%
%TO.N,A5*%
X18618200Y-21539200D03*
%TO.P,A1,25,A6*%
%TO.N,unconnected-(A1-A6-Pad25)*%
X18618200Y-18999200D03*
%TO.P,A1,26,A7*%
%TO.N,unconnected-(A1-A7-Pad26)*%
X18618200Y-16459200D03*
%TO.P,A1,27,+5V*%
%TO.N,5V*%
X18618200Y-13919200D03*
%TO.P,A1,28,~{RESET}*%
%TO.N,unconnected-(A1-~{RESET}-Pad28)*%
X18618200Y-11379200D03*
%TO.P,A1,29,GND*%
%TO.N,GND*%
X18618200Y-8839200D03*
%TO.P,A1,30,VIN*%
%TO.N,Vin*%
X18618200Y-6299200D03*
%TD*%
D15*
%TO.P,J3,1,Pin_1*%
%TO.N,Vgiri\u015F*%
X25447900Y-6753500D03*
D16*
%TO.P,J3,2,Pin_2*%
%TO.N,GND*%
X30527900Y-6753500D03*
%TD*%
D11*
%TO.P,J1,1,Pin_1*%
%TO.N,5V*%
X7294800Y-16374200D03*
D12*
%TO.P,J1,2,Pin_2*%
%TO.N,D3*%
X7294800Y-17644200D03*
%TO.P,J1,3,Pin_3*%
%TO.N,D2*%
X7294800Y-18914200D03*
%TO.P,J1,4,Pin_4*%
%TO.N,GND*%
X7294800Y-20184200D03*
%TD*%
D17*
%TO.P,U1,1,VI*%
%TO.N,Vgiri\u015F*%
X32771000Y-23029000D03*
D18*
%TO.P,U1,2,GND*%
%TO.N,GND*%
X32771000Y-28479000D03*
%TO.P,U1,3,VO*%
%TO.N,Vin*%
X32771000Y-33929000D03*
%TD*%
D10*
%TO.P,C1,1*%
%TO.N,Vgiri\u015F*%
X24091800Y-15663000D03*
%TO.P,C1,2*%
%TO.N,GND*%
X34091800Y-15663000D03*
%TD*%
D19*
%TO.N,*%
X10287000Y-31699200D03*
X26670000Y-28244800D03*
X35560000Y-3200400D03*
D20*
X35560000Y-3200400D03*
X35560000Y-3200400D03*
%TD*%
D21*
%TO.N,Vin*%
X145149400Y-58343800D02*
X145216800Y-58411200D01*
%TO.N,A5*%
X137825400Y-72203400D02*
X138028600Y-72406600D01*
%TD*%
M02*
