M48
; DRILL file {KiCad 8.0.2} date 2024-06-22T21:26:22+0300
; FORMAT={-:-/ absolute / inch / decimal}
; #@! TF.CreationDate,2024-06-22T21:26:22+03:00
; #@! TF.GenerationSoftware,Kicad,Pcbnew,8.0.2
; #@! TF.FileFunction,Plated,1,2,PTH
FMAT,2
INCH
; #@! TA.AperFunction,Plated,PTH,ViaDrill
T1C0.0118
; #@! TA.AperFunction,Plated,PTH,ComponentDrill
T2C0.0256
; #@! TA.AperFunction,Plated,PTH,ComponentDrill
T3C0.0394
; #@! TA.AperFunction,Plated,PTH,ComponentDrill
T4C0.0472
; #@! TA.AperFunction,Plated,PTH,ComponentDrill
T5C0.0591
; #@! TA.AperFunction,Plated,PTH,ViaDrill
T6C0.0984
%
G90
G05
T1
X1.4Y-0.126
X1.4Y-0.126
T2
X0.2872Y-0.6447
X0.2872Y-0.6947
X0.2872Y-0.7447
X0.2872Y-0.7947
X0.5502Y-0.6437
X0.5502Y-0.6937
X0.5502Y-0.7437
X0.5502Y-0.7937
T3
X0.133Y-0.248
X0.133Y-0.348
X0.133Y-0.448
X0.133Y-0.548
X0.133Y-0.648
X0.133Y-0.748
X0.133Y-0.848
X0.133Y-0.948
X0.133Y-1.048
X0.133Y-1.148
X0.133Y-1.248
X0.133Y-1.348
X0.133Y-1.448
X0.133Y-1.548
X0.133Y-1.648
X0.733Y-0.248
X0.733Y-0.348
X0.733Y-0.448
X0.733Y-0.548
X0.733Y-0.648
X0.733Y-0.748
X0.733Y-0.848
X0.733Y-0.948
X0.733Y-1.048
X0.733Y-1.148
X0.733Y-1.248
X0.733Y-1.348
X0.733Y-1.448
X0.733Y-1.548
X0.733Y-1.648
X0.9485Y-0.6167
X0.9543Y-1.6437
X1.3422Y-0.6167
X1.348Y-1.6437
T4
X1.0019Y-0.2659
X1.2019Y-0.2659
T5
X1.2902Y-0.9067
X1.2902Y-1.1212
X1.2902Y-1.3358
T6
X0.405Y-1.248
X1.05Y-1.112
X1.4Y-0.126
M30
