M48
; DRILL file {KiCad 8.0.2} date 2024-06-24T16:02:40+0300
; FORMAT={-:-/ absolute / inch / decimal}
; #@! TF.CreationDate,2024-06-24T16:02:40+03:00
; #@! TF.GenerationSoftware,Kicad,Pcbnew,8.0.2
; #@! TF.FileFunction,Plated,1,2,PTH
FMAT,2
INCH
; #@! TA.AperFunction,Plated,PTH,ViaDrill
T1C0.0118
; #@! TA.AperFunction,Plated,PTH,ComponentDrill
T2C0.0394
; #@! TA.AperFunction,Plated,PTH,ComponentDrill
T3C0.0472
; #@! TA.AperFunction,Plated,PTH,ComponentDrill
T4C0.0591
; #@! TA.AperFunction,Plated,PTH,ViaDrill
T5C0.0984
%
G90
G05
T1
X1.409Y1.734
X1.409Y1.734
T2
X0.142Y1.612
X0.142Y1.512
X0.142Y1.412
X0.142Y1.312
X0.142Y1.212
X0.142Y1.112
X0.142Y1.012
X0.142Y0.912
X0.142Y0.812
X0.142Y0.712
X0.142Y0.612
X0.142Y0.512
X0.142Y0.412
X0.142Y0.312
X0.142Y0.212
X0.3Y1.312
X0.3Y1.212
X0.3Y1.112
X0.3Y1.012
X0.558Y1.278
X0.558Y1.178
X0.558Y1.078
X0.558Y0.978
X0.742Y1.612
X0.742Y1.512
X0.742Y1.412
X0.742Y1.312
X0.742Y1.212
X0.742Y1.112
X0.742Y1.012
X0.742Y0.912
X0.742Y0.812
X0.742Y0.712
X0.742Y0.612
X0.742Y0.512
X0.742Y0.412
X0.742Y0.312
X0.742Y0.212
X0.9575Y1.2433
X0.9633Y0.2163
X1.3512Y1.2433
X1.357Y0.2163
T3
X1.0109Y1.5941
X1.2109Y1.5941
T4
X1.2992Y0.9533
X1.2992Y0.7388
X1.2992Y0.5242
T5
X0.414Y0.612
X1.059Y0.748
X1.409Y1.734
M30
